<svg xmlns="http://www.w3.org/2000/svg" viewBox="0 0 406 406"><path d="M133.614 275.86l-7.318-6.288c-19.118-16.428-23.712-44.428-10.924-66.577l.184-.32a31.867 31.867 0 003.778-21.479l-7.459-41.938 28.364 16.369-8.9-50.063 29.459 16.993-9.251-52.005 30.221 17.435 12.585-21.781c12.122-20.999 55.978-23.257 69.13-23.448l4.783-.07 2.325 4.181c6.394 11.495 26.314 50.63 14.228 71.568l-12.581 21.79 15.343 8.853 14.879 8.594-49.675 18.006 29.479 17.001-47.83 17.329 28.364 16.372-39.014 14.138a34.993 34.993 0 00-18.233 15.217l-.135.243c-9.307 16.11-26.66 26.118-45.287 26.118a51.78 51.78 0 01-17.461-3.035l-9.033-3.227-.021.024z" fill="#efefef"/><path d="M8 363.265v-250h124.703l7.532 42.367-28.357-16.379 7.458 41.952a31.827 31.827 0 01-3.769 21.46l-.185.32c-13.242 22.935-7.682 52.261 12.926 68.226l5.519 4.275.005-.009 6.477 2.672c6.348 2.618 13.016 3.945 19.82 3.945 9.147 0 18.185-2.43 26.136-7.025 7.972-4.6 14.597-11.214 19.164-19.131l.12-.202a34.87 34.87 0 0118.236-15.214l39.007-14.139-28.356-16.377 47.818-17.323-29.471-17.018 49.682-17.992-30.224-17.452 12.58-21.786c.15-.268.336-.613.521-.959l2.265-4.212H398v250H8v.001z" fill="#f5c525"/><g fill="#231f20"><path d="M398 105.265H296.52c1.65-27.81-18.689-62.1-21.5-66.69a8.024 8.024 0 00-6.61-3.82s-.79-.02-2.2-.02c-14.77 0-64.07 1.98-78.79 27.47l-8.58 14.86-23.29-13.45a7.996 7.996 0 00-11.88 8.32l5.93 33.33h-2.77l-11.49-6.64a7.995 7.995 0 00-8.6.38 7.978 7.978 0 00-3.38 6.26H8c-4.42 0-8 3.58-8 8v250c0 4.41 3.58 8 8 8h390c4.42 0 8-3.59 8-8v-250c0-4.42-3.58-8-8-8zm-261.76 57.29a7.999 7.999 0 0011.87-8.33l-5.89-33.15 14.58 8.41a7.998 7.998 0 008.59-.37 7.987 7.987 0 003.28-7.95l-6.24-35.1 15.34 8.85a7.999 7.999 0 0010.93-2.93l12.58-21.78c7.51-13.01 36.25-19.07 62.32-19.45 8.32 14.96 23.22 48.21 14.29 63.68l-12.58 21.79c-1.06 1.83-1.35 4.02-.8 6.07s1.89 3.79 3.73 4.85l15.34 8.86-33.521 12.15a7.999 7.999 0 00-1.27 14.45l14.58 8.41-31.66 11.47a7.984 7.984 0 00-5.24 6.82 7.981 7.981 0 003.96 7.63l13.48 7.78-22.85 8.28a42.98 42.98 0 00-22.53 18.9l-.04.08c-7.88 13.64-22.58 22.12-38.36 22.12-5.04 0-10.04-.88-14.77-2.57l103.8-179.8c2.21-3.82.9-8.71-2.93-10.92-3.82-2.21-8.72-.9-10.92 2.92l-103.8 179.78c-15.85-13.62-20.18-37.51-9.21-56.51l.19-.33a39.866 39.866 0 004.72-26.87l-4.45-25.02 13.481 7.78zM390 355.265H16v-234h110l3.35 18.84-13.47-7.78a7.995 7.995 0 00-8.6.38 8.01 8.01 0 00-3.28 7.95l7.46 41.95c.98 5.51-.02 11.21-2.82 16.06l-.19.33c-15.37 26.62-8.47 60.39 14.96 78.54l-25.77 44.64a7.998 7.998 0 002.93 10.93 8.01 8.01 0 0010.93-2.93l25.76-44.63a59.967 59.967 0 0022.87 4.55 60.22 60.22 0 0030.14-8.1c9.03-5.21 16.72-12.75 22.09-22.06l.05-.08a26.86 26.86 0 0114.1-11.81l39.01-14.14a8 8 0 001.27-14.45l-13.47-7.78 31.66-11.47a8 8 0 001.27-14.45l-14.58-8.42 33.52-12.14a8 8 0 005.24-6.82c.28-3.1-1.27-6.08-3.97-7.63l-23.29-13.45 8.58-14.86c.22-.39.43-.78.64-1.17H390v234z"/><path d="M165.67 326.175c0 4.42-3.59 8-8 8h-9.5c-4.42 0-8-3.58-8-8s3.58-8 8-8h9.5c4.41 0 8 3.58 8 8zM212.77 326.175c0 4.42-3.58 8-8 8h-15.95c-4.42 0-8-3.58-8-8s3.58-8 8-8h15.95c4.42 0 8 3.58 8 8zM306.99 326.175c0 4.42-3.58 8-8 8h-15.95c-4.42 0-8-3.58-8-8s3.58-8 8-8h15.95c4.42 0 8 3.58 8 8zM259.88 326.175c0 4.42-3.58 8-8 8h-14.43c-4.42 0-8-3.58-8-8s3.58-8 8-8h14.43c4.42 0 8 3.58 8 8zM349.17 326.175c0 4.42-3.59 8-8 8h-9.5c-4.42 0-8-3.58-8-8s3.58-8 8-8h9.5c4.41 0 8 3.58 8 8z"/></g></svg>