<svg xmlns="http://www.w3.org/2000/svg" viewBox="0 0 428.42 428.42"><path fill="#efefef" d="M47.21 43.42h334v379h-334z"/><path d="M214.21 370.12c-21.196 0-39.355-14.418-44.16-35.063l-2.854-12.267h17.514V201.307l11.813 2.179c5.81 1.071 11.76 1.614 17.687 1.614s11.877-.543 17.687-1.614l11.813-2.179V322.79h17.514l-2.854 12.267c-4.805 20.645-22.964 35.063-44.16 35.063z" fill="#eb7830"/><path d="M214.21 209.1c-9.546 0-18.987-1.322-28.061-3.929-43.267-12.403-73.489-52.547-73.489-97.622C112.66 51.555 158.215 6 214.21 6s101.55 45.555 101.55 101.55c0 45.076-30.226 85.22-73.505 97.623a101.427 101.427 0 01-28.045 3.927zm0-162.05c-33.36 0-60.5 27.14-60.5 60.5s27.14 60.5 60.5 60.5 60.5-27.14 60.5-60.5-27.14-60.5-60.5-60.5z" fill="#eb7830"/><path d="M214.21 43.05c-35.565 0-64.5 28.935-64.5 64.5s28.935 64.5 64.5 64.5 64.5-28.935 64.5-64.5-28.935-64.5-64.5-64.5z" fill="#efefef"/><g fill="#231f20"><path d="M379.21 37.42h-83.53C275.94 14.52 246.74 0 214.21 0s-61.74 14.52-81.47 37.42H49.21c-4.42 0-8 3.58-8 8v375c0 4.42 3.58 8 8 8h330c4.42 0 8-3.58 8-8v-375c0-4.42-3.58-8-8-8zM214.21 16c50.48 0 91.55 41.07 91.55 91.55 0 40.63-27.25 76.83-66.26 88.01-8.17 2.35-16.68 3.54-25.29 3.54s-17.12-1.19-25.3-3.54c-39-11.18-66.25-47.38-66.25-88.01 0-50.48 41.07-91.55 91.55-91.55zm27.5 316.79h6.92c-3.64 15.64-17.69 27.33-34.42 27.33s-30.78-11.69-34.42-27.33h6.92c4.42 0 8-3.58 8-8V213.32c6.4 1.18 12.93 1.78 19.5 1.78s13.1-.6 19.5-1.78v111.47c0 4.42 3.58 8 8 8zm129.5 79.63h-314v-359h64.1c-9.31 15.91-14.65 34.41-14.65 54.13 0 23.83 7.63 46.4 22.07 65.28 12.73 16.65 30.32 29.35 49.98 36.24v107.72h-7.83c-4.42 0-8 3.58-8 8 0 28.3 23.03 51.33 51.33 51.33s51.33-23.03 51.33-51.33c0-4.42-3.58-8-8-8h-7.83V209.07c19.66-6.9 37.25-19.59 49.98-36.24 14.44-18.88 22.07-41.45 22.07-65.28 0-19.72-5.34-38.22-14.65-54.13h64.1v359z"/><path d="M214.21 37.05c-38.87 0-70.5 31.63-70.5 70.5s31.63 70.5 70.5 70.5 70.5-31.63 70.5-70.5c0-38.87-31.63-70.5-70.5-70.5zm0 125c-30.05 0-54.5-24.45-54.5-54.5s24.45-54.5 54.5-54.5 54.5 24.45 54.5 54.5-24.45 54.5-54.5 54.5zM154.96 221.79c0 4.42-3.58 8-8 8h-59c-4.42 0-8-3.58-8-8s3.58-8 8-8h59c4.42 0 8 3.58 8 8zM154.96 261.79c0 4.42-3.58 8-8 8h-59c-4.42 0-8-3.58-8-8s3.58-8 8-8h59c4.42 0 8 3.58 8 8zM154.96 301.79c0 4.42-3.58 8-8 8h-59c-4.42 0-8-3.58-8-8s3.58-8 8-8h59c4.42 0 8 3.58 8 8zM351.26 221.79c0 4.42-3.58 8-8 8h-59c-4.42 0-8-3.58-8-8s3.58-8 8-8h59c4.42 0 8 3.58 8 8zM351.26 261.79c0 4.42-3.58 8-8 8h-59c-4.42 0-8-3.58-8-8s3.58-8 8-8h59c4.42 0 8 3.58 8 8zM351.26 301.79c0 4.42-3.58 8-8 8h-59c-4.42 0-8-3.58-8-8s3.58-8 8-8h59c4.42 0 8 3.58 8 8zM160.96 381.79c0 4.42-3.58 8-8 8h-65c-4.42 0-8-3.58-8-8s3.58-8 8-8h65c4.42 0 8 3.58 8 8zM351.26 381.79c0 4.42-3.58 8-8 8h-67c-4.42 0-8-3.58-8-8s3.58-8 8-8h67c4.42 0 8 3.58 8 8zM135.96 341.79c0 4.42-3.58 8-8 8h-40c-4.42 0-8-3.58-8-8s3.58-8 8-8h40c4.42 0 8 3.58 8 8zM351.26 341.79c0 4.42-3.58 8-8 8h-40c-4.42 0-8-3.58-8-8s3.58-8 8-8h40c4.42 0 8 3.58 8 8z"/><path d="M213.75 73.84h-14.54c-4.42 0-8 3.58-8 8v51.42c0 4.42 3.58 8 8 8h14.54c18.45 0 33.46-15 33.46-33.45v-.52c0-18.45-15.01-33.45-33.46-33.45zm17.46 33.97c0 9.62-7.83 17.45-17.46 17.45h-6.54V89.84h6.54c9.63 0 17.46 7.83 17.46 17.45v.52z"/></g></svg>