<svg xmlns="http://www.w3.org/2000/svg" viewBox="0 0 415.34 415.34"><path d="M113.513 400.4L407.34 98.678V400.4H113.513zm118.488-49.999l125.339-.001.003-128.712-125.342 128.713zM8 236.679V30.84h205.854L8 236.679z" fill="#efefef"/><path fill="#f5c525" d="M31.202 291.849l57.97 57.968-79.221 21.252z"/><path fill="#3e81c8" d="M31.209 291.848L278.538 44.519l28.983 28.984L60.192 320.83z"/><path fill="#3e81c8" d="M60.184 320.832L307.52 73.497l28.983 28.983L89.182 349.813z"/><path d="M278.535 44.508l23.11-23.096c4.172-4.173 9.719-6.473 15.615-6.473s11.442 2.299 15.617 6.474l26.739 26.729c4.169 4.169 6.464 9.716 6.464 15.618 0 5.904-2.296 11.451-6.464 15.618l-23.105 23.105-57.976-57.975z" fill="#eb7830"/><g fill="#231f20"><path d="M410.35 91.27a8.006 8.006 0 00-8.74 1.83L107.78 394.82c-2.24 2.3-2.88 5.73-1.63 8.69s4.15 4.89 7.37 4.89h293.82c4.42 0 8-3.58 8-8V98.68c0-3.25-1.97-6.18-4.99-7.41zM399.34 392.4H132.47l266.87-274.04V392.4z"/><path d="M360.35 214.28a7.988 7.988 0 00-8.74 1.83L226.27 344.82A8 8 0 00232 358.4h125.34c4.42 0 8-3.58 8-8V221.69c0-3.25-1.97-6.18-4.99-7.41zM349.34 342.4h-98.38l98.38-101.03V342.4zM221.24 27.78a7.996 7.996 0 00-7.39-4.94H8c-4.42 0-8 3.58-8 8v205.85a8.007 8.007 0 008 8c2.08 0 4.13-.82 5.66-2.35L219.51 36.49a7.979 7.979 0 001.73-8.71zm-45.89 30.25l-8.58-8.59a8.015 8.015 0 00-11.32 0 8.015 8.015 0 000 11.32l8.59 8.58-19.61 19.6-8.58-8.58c-3.12-3.12-8.19-3.12-11.31 0-3.13 3.13-3.13 8.19 0 11.31l8.58 8.59-19.6 19.6-8.59-8.58a7.985 7.985 0 00-11.31 0c-3.12 3.12-3.12 8.19 0 11.31l8.58 8.58-19.6 19.61-8.58-8.59a8.015 8.015 0 00-11.32 0 8.015 8.015 0 000 11.32l8.59 8.58-19.61 19.6-8.58-8.58c-3.12-3.12-8.19-3.12-11.31 0a7.985 7.985 0 000 11.31l8.58 8.59L16 217.37V38.84h178.54l-19.19 19.19z"/><path d="M113.21 75.84c0 4.41-3.58 8-8 8H61v44.21c0 4.41-3.58 8-8 8s-8-3.59-8-8V75.84c0-4.42 3.58-8 8-8h52.21c4.42 0 8 3.58 8 8zM365.27 42.49l-26.74-26.74c-5.68-5.68-13.24-8.81-21.27-8.81-8.04 0-15.59 3.13-21.27 8.81L25.55 286.19c-.98.98-1.7 2.2-2.07 3.58L2.22 369c-.74 2.76.05 5.71 2.07 7.73a8.01 8.01 0 005.66 2.34c.69 0 1.39-.09 2.07-.27l79.23-21.26a7.91 7.91 0 003.58-2.07L365.27 85.03c5.68-5.68 8.81-13.23 8.81-21.27 0-8.03-3.13-15.59-8.81-21.27zm-86.73 13.34l17.67 17.67L60.19 309.52l-17.67-17.67L278.54 55.83zM21.27 359.75l14.07-52.45 38.38 38.38-52.45 14.07zm67.91-21.25L71.5 320.83 307.52 84.81l17.67 17.67L89.18 338.5zM353.96 73.72l-17.45 17.45-46.66-46.66 17.45-17.44c2.66-2.66 6.2-4.13 9.96-4.13 3.76 0 7.3 1.47 9.96 4.13l26.74 26.73c2.66 2.66 4.12 6.2 4.12 9.96 0 3.76-1.46 7.3-4.12 9.96z"/></g></svg>