<svg xmlns="http://www.w3.org/2000/svg" viewBox="0 0 430.28 430.28"><path d="M352.22 351.81c0 12.95-12.54 28.5-25.5 28.5H161.25c4.88-6.57 7.77-19.71 7.77-28.5 0-8.8-2.88-21.93-7.76-28.5h165.46c12.96 0 25.5 15.54 25.5 28.5z" fill="#efefef"/><path fill="#eb7830" d="M147.06 11h128v34h-128z"/><path d="M139.52 317.31h171.2V83h-200.7v268.81c0 12.95 16.55 28.5 29.5 28.5 12.96 0 30.5-15.55 30.5-28.5 0-12.96-17.54-30.5-30.5-30.5-4.41 0-3 3.42-3-1s-1.41-3 3-3z" fill="#efefef"/><path d="M316.72 320.31V85c0-4.42-3.58-8-8-8h-195.7c-4.41 0-8 3.58-8 8v266.81c0 21.78 17.72 34.5 39.5 34.5h178.2c5.44 0 15.62-6.11 20.34-8.1v41.07h-264V51h264v272.4c-4.72-1.99-19.9-3.09-25.34-3.09h-1z" fill="#3e81c8"/><path fill="#f5c525" d="M148.03 129.94h49v49h-49zM147.53 219.11h50v50h-50z"/><g fill="#231f20"><path d="M354.06 327.79V48c0-4.42-3.59-8-8-8h-59.5V8c0-4.42-3.59-8-8-8h-135c-4.42 0-8 3.58-8 8v32h-59.5c-4.42 0-8 3.58-8 8v374.28c0 4.42 3.58 8 8 8h270c4.41 0 8-3.58 8-8v-46.46c5.11-6.66 8.16-14.98 8.16-24.01s-3.05-17.36-8.16-24.02zM151.56 16h119v24h-119V16zm186.5 398.28h-254V56h254v259.4c-4.72-1.99-9.9-3.09-15.34-3.09h-1V80c0-4.42-3.58-8-8-8h-205.7c-4.41 0-8 3.58-8 8v271.81c0 21.78 17.72 39.5 39.5 39.5h183.2c5.44 0 10.62-1.11 15.34-3.1v26.07zm-198.54-85.97c12.96 0 23.5 10.54 23.5 23.5 0 12.95-10.54 23.5-23.5 23.5-12.95 0-23.5-10.55-23.5-23.5V88h189.7v224.31h-166.2c-4.41 0-8 3.58-8 8s3.59 8 8 8zm183.2 47H171.25a39.3 39.3 0 007.77-23.5c0-8.8-2.88-16.93-7.76-23.5h151.46c12.96 0 23.5 10.54 23.5 23.5 0 12.95-10.54 23.5-23.5 23.5z"/><path d="M197 121.97h-48.94c-4.42 0-8 3.59-8 8v48.94c0 4.42 3.58 8 8 8H197c4.41 0 8-3.58 8-8v-48.94c0-4.41-3.59-8-8-8zm-8 48.94h-32.94v-32.94H189v32.94zM287.31 140.39c0 4.42-3.59 8-8 8h-51c-4.42 0-8-3.58-8-8s3.58-8 8-8h51c4.41 0 8 3.58 8 8zM287.31 169.14c0 4.42-3.59 8-8 8h-51c-4.42 0-8-3.58-8-8s3.58-8 8-8h51c4.41 0 8 3.58 8 8zM197 211.64h-48.94c-4.42 0-8 3.58-8 8v48.94c0 4.42 3.58 8 8 8H197c4.41 0 8-3.58 8-8v-48.94c0-4.42-3.59-8-8-8zm-8 48.94h-32.94v-32.94H189v32.94zM287.31 230.06c0 4.41-3.59 8-8 8h-51c-4.42 0-8-3.59-8-8 0-4.42 3.58-8 8-8h51c4.41 0 8 3.58 8 8zM287.31 258.81c0 4.41-3.59 8-8 8h-51c-4.42 0-8-3.59-8-8 0-4.42 3.58-8 8-8h51c4.41 0 8 3.58 8 8z"/></g></svg>